<?xml version="1.0" encoding="utf-8"?>
<!-- Generator: Adobe Illustrator 17.0.0, SVG Export Plug-In . SVG Version: 6.00 Build 0)  -->
<!DOCTYPE svg PUBLIC "-//W3C//DTD SVG 1.1//EN" "http://www.w3.org/Graphics/SVG/1.1/DTD/svg11.dtd">
<svg version="1.1" id="Layer_1" xmlns="http://www.w3.org/2000/svg" xmlns:xlink="http://www.w3.org/1999/xlink" x="0px" y="0px"
	 width="572px" height="92px" viewBox="0 0 572 92" enable-background="new 0 0 572 92" xml:space="preserve">
<path fill="#FFFFFF" d="M0.181,5.36h32.896v1.28l-2.56,1.024c-1.708,0.598-2.838,1.408-3.392,2.432
	c-0.556,1.024-0.832,2.39-0.832,4.096v66.816c0,1.708,0.276,3.053,0.832,4.032c0.554,0.981,1.684,1.813,3.392,2.495l2.56,1.025
	v1.279H0.181v-1.279l2.56-1.025c1.706-0.596,2.836-1.407,3.392-2.432c0.554-1.023,0.832-2.388,0.832-4.096V14.192
	c0-1.706-0.256-3.072-0.768-4.096S4.533,8.262,2.741,7.664L0.181,6.64V5.36z M138.933,81.905V44.4c0-6.228-1.43-10.794-4.288-13.696
	c-2.86-2.9-7.318-4.352-13.376-4.352c-3.67,0-7.446,0.918-11.328,2.752c-3.884,1.836-7.488,4.332-10.816,7.488
	c-1.28-3.498-3.158-6.08-5.632-7.744c-2.476-1.664-5.76-2.496-9.856-2.496c-3.926,0-7.702,0.982-11.328,2.944
	c-3.628,1.964-6.848,4.352-9.664,7.168l-1.024-8.704l-1.28-1.28l-21.888,7.424v1.28l1.92,0.512c1.706,0.342,2.858,0.96,3.456,1.856
	c0.596,0.896,0.896,2.284,0.896,4.16v40.063c-0.086,1.709-0.448,3.072-1.088,4.097c-0.64,1.024-1.772,1.75-3.392,2.176l-1.792,0.513
	v1.279h30.08v-1.279l-1.152-0.385c-2.988-0.852-4.48-2.943-4.48-6.271v-42.88c2.132-1.876,4.18-3.306,6.144-4.288
	c1.962-0.98,3.924-1.472,5.888-1.472c2.986,0,5.098,0.726,6.336,2.176c1.236,1.452,1.856,3.884,1.856,7.296v39.04
	c0,1.709-0.32,3.053-0.96,4.032c-0.64,0.982-1.772,1.728-3.392,2.24l-1.792,0.513v1.279h29.696v-1.279l-1.152-0.385
	c-2.988-0.852-4.524-2.943-4.608-6.271V48.752c0-1.792-0.064-3.498-0.192-5.12c-0.128-1.62-0.406-3.114-0.832-4.48
	c2.304-1.962,4.5-3.434,6.592-4.416c2.09-0.98,4.244-1.472,6.464-1.472c2.816,0,4.864,0.662,6.144,1.984
	c1.28,1.324,1.92,3.776,1.92,7.36v39.167c0,1.709-0.32,3.072-0.96,4.097c-0.64,1.024-1.772,1.792-3.392,2.304l-1.28,0.385v1.279
	h29.568v-1.279l-1.408-0.385C140.469,87.324,138.933,85.233,138.933,81.905z M250.419,81.905V44.4c0-6.228-1.43-10.794-4.288-13.696
	c-2.86-2.9-7.318-4.352-13.376-4.352c-3.67,0-7.446,0.918-11.328,2.752c-3.884,1.836-7.488,4.332-10.815,7.488
	c-1.28-3.498-3.158-6.08-5.633-7.744c-2.476-1.664-5.76-2.496-9.855-2.496c-3.926,0-7.702,0.982-11.328,2.944
	c-3.628,1.964-6.848,4.352-9.664,7.168l-1.024-8.704l-1.28-1.28l-21.888,7.424v1.28l1.92,0.512c1.706,0.342,2.858,0.96,3.456,1.856
	c0.596,0.896,0.896,2.284,0.896,4.16v40.063c-0.086,1.709-0.448,3.072-1.088,4.097c-0.64,1.024-1.772,1.75-3.392,2.176l-1.792,0.513
	v1.279h30.08v-1.279l-1.152-0.385c-2.988-0.852-4.48-2.943-4.48-6.271v-42.88c2.132-1.876,4.18-3.306,6.144-4.288
	c1.962-0.98,3.924-1.472,5.888-1.472c2.986,0,5.098,0.726,6.336,2.176c1.236,1.452,1.856,3.884,1.856,7.296v39.04
	c0,1.709-0.32,3.053-0.96,4.032c-0.64,0.982-1.772,1.728-3.392,2.24l-1.792,0.513v1.279h29.696v-1.279l-1.152-0.385
	c-2.988-0.852-4.523-2.943-4.607-6.271V48.752c0-1.792-0.064-3.498-0.192-5.12c-0.128-1.62-0.406-3.114-0.832-4.48
	c2.304-1.962,4.5-3.434,6.592-4.416c2.09-0.98,4.244-1.472,6.464-1.472c2.816,0,4.864,0.662,6.145,1.984
	c1.28,1.324,1.92,3.776,1.92,7.36v39.167c0,1.709-0.32,3.072-0.96,4.097c-0.641,1.024-1.772,1.792-3.393,2.304l-1.279,0.385v1.279
	h29.567v-1.279l-1.407-0.385C251.955,87.324,250.419,85.233,250.419,81.905z M286.961,85.872c-0.64-1.024-0.96-2.388-0.96-4.097
	V45.936l0.384-18.176l-1.279-1.28l-23.424,7.552v1.28l1.792,0.384c1.706,0.342,2.88,0.96,3.52,1.856s0.96,2.24,0.96,4.032v40.064
	c0,1.707-0.32,3.071-0.96,4.096c-0.64,1.023-1.813,1.791-3.52,2.304l-1.792,0.513v1.279h29.951v-1.279l-1.279-0.385
	C288.731,87.664,287.601,86.897,286.961,85.872z M276.785,19.696c2.9,0,5.332-0.916,7.296-2.752c1.962-1.834,2.944-4.16,2.944-6.976
	c0-2.9-0.982-5.248-2.944-7.04c-1.964-1.792-4.396-2.688-7.296-2.688c-2.902,0-5.355,0.896-7.36,2.688
	c-2.006,1.792-3.008,4.14-3.008,7.04c0,2.816,1.002,5.142,3.008,6.976C271.43,18.78,273.883,19.696,276.785,19.696z M360.241,81.905
	V45.04c0-6.314-1.517-11.008-4.544-14.08c-3.03-3.072-7.36-4.608-12.992-4.608c-3.67,0-7.382,0.854-11.136,2.56
	c-3.756,1.708-7.126,3.884-10.112,6.528l-1.024-7.68l-1.279-1.28l-21.889,7.424v1.28l1.921,0.512
	c1.705,0.342,2.857,0.96,3.455,1.856c0.597,0.896,0.896,2.284,0.896,4.16v40.063c0,3.328-1.494,5.42-4.48,6.272l-1.792,0.513v1.279
	h30.08v-1.279l-1.151-0.385c-2.988-0.852-4.48-2.943-4.48-6.271V38.384c4.437-3.754,8.532-5.632,12.288-5.632
	c5.46,0,8.192,2.732,8.192,8.192v40.832c0,3.244-1.494,5.334-4.48,6.272l-1.664,0.513v1.279h30.208v-1.279l-1.151-0.385
	C361.861,87.324,360.241,85.233,360.241,81.905z M423.407,38.96c2.09,3.884,3.136,8.3,3.136,13.248c0,0.94-0.044,1.9-0.128,2.88
	c-0.086,0.982-0.256,1.856-0.512,2.624h-38.144c0.084,9.216,1.728,15.853,4.928,19.903c3.2,4.055,7.956,6.08,14.271,6.08
	c4.267,0,7.723-0.682,10.368-2.047c2.645-1.365,5.12-3.371,7.424-6.017l1.28,1.151c-2.646,4.695-6.166,8.365-10.56,11.009
	c-4.396,2.644-9.664,3.968-15.809,3.968c-6.06,0-11.436-1.302-16.128-3.904c-4.694-2.602-8.364-6.336-11.008-11.199
	c-2.646-4.864-3.968-10.666-3.968-17.408c0-6.996,1.536-12.948,4.607-17.856c3.072-4.906,7.019-8.64,11.84-11.2
	c4.82-2.56,9.877-3.84,15.169-3.84c5.546,0,10.281,1.132,14.208,3.392C418.307,32.006,421.315,35.078,423.407,38.96z
	 M408.623,35.056c-1.536-4.096-4.479-6.144-8.832-6.144c-2.476,0-4.588,0.748-6.336,2.24c-1.75,1.494-3.116,4.14-4.096,7.936
	c-0.982,3.798-1.516,9.152-1.6,16.064h21.888C410.499,45.852,410.159,39.152,408.623,35.056z M494.637,81.905V45.04
	c0-6.314-1.517-11.008-4.544-14.08c-3.03-3.072-7.36-4.608-12.992-4.608c-3.67,0-7.382,0.854-11.136,2.56
	c-3.756,1.708-7.126,3.884-10.112,6.528l-1.024-7.68l-1.279-1.28l-21.889,7.424v1.28l1.921,0.512
	c1.705,0.342,2.857,0.96,3.455,1.856c0.597,0.896,0.896,2.284,0.896,4.16v40.063c0,3.328-1.494,5.42-4.48,6.272l-1.792,0.513v1.279
	h30.08v-1.279l-1.151-0.385c-2.988-0.852-4.48-2.943-4.48-6.271V38.384c4.437-3.754,8.532-5.632,12.288-5.632
	c5.46,0,8.192,2.732,8.192,8.192v40.832c0,3.244-1.494,5.334-4.48,6.272l-1.664,0.513v1.279h30.208v-1.279l-1.151-0.385
	C496.257,87.324,494.637,85.233,494.637,81.905z M538.667,84.656c-1.366,0.896-2.943,1.344-4.735,1.344
	c-2.049,0-3.734-0.768-5.057-2.305c-1.324-1.535-1.983-3.795-1.983-6.783v-46.08h14.464v-2.56H527.02l0.384-17.92h-1.28L515.627,22
	c-1.878,1.878-3.775,3.372-5.695,4.48c-1.921,1.11-4.204,1.964-6.849,2.56l-3.072,0.512v1.28h8.832v43.775
	c0,5.975,1.515,10.326,4.544,13.057c3.028,2.73,7.274,4.096,12.736,4.096c4.267,0,7.893-0.854,10.88-2.561
	c2.986-1.705,5.332-4.01,7.04-6.911l-1.28-1.28C541.398,82.544,540.032,83.76,538.667,84.656z M568.619,73.073
	c-2.134-2.219-4.735-3.328-7.808-3.328s-5.676,1.109-7.809,3.328c-2.134,2.22-3.199,4.822-3.199,7.808
	c0,2.987,1.065,5.548,3.199,7.681c2.133,2.131,4.736,3.199,7.809,3.199s5.674-1.068,7.808-3.199c2.132-2.133,3.2-4.693,3.2-7.681
	C571.819,77.895,570.75,75.292,568.619,73.073z"/>
</svg>
